<svg id="visual" viewBox="0 0 960 540" width="960" height="540" xmlns="http://www.w3.org/2000/svg" xmlns:xlink="http://www.w3.org/1999/xlink" version="1.1"><path d="M0 71L160 98L320 77L480 104L640 93L800 87L960 71L960 0L800 0L640 0L480 0L320 0L160 0L0 0Z" fill="#143ba2"></path><path d="M0 201L160 222L320 228L480 249L640 233L800 206L960 212L960 69L800 85L640 91L480 102L320 75L160 96L0 69Z" fill="#0f339d"></path><path d="M0 249L160 266L320 266L480 282L640 282L800 255L960 255L960 210L800 204L640 231L480 247L320 226L160 220L0 199Z" fill="#0b2b98"></path><path d="M0 298L160 320L320 320L480 320L640 330L800 293L960 309L960 253L800 253L640 280L480 280L320 264L160 264L0 247Z" fill="#082393"></path><path d="M0 368L160 368L320 390L480 374L640 379L800 368L960 357L960 307L800 291L640 328L480 318L320 318L160 318L0 296Z" fill="#061a8e"></path><path d="M0 411L160 417L320 438L480 422L640 433L800 411L960 417L960 355L800 366L640 377L480 372L320 388L160 366L0 366Z" fill="#061088"></path><path d="M0 541L160 541L320 541L480 541L640 541L800 541L960 541L960 415L800 409L640 431L480 420L320 436L160 415L0 409Z" fill="#060382"></path></svg>