<svg id="visual" viewBox="0 0 540 960" width="540" height="960" xmlns="http://www.w3.org/2000/svg" xmlns:xlink="http://www.w3.org/1999/xlink" version="1.1"><path d="M0 126L90 174L180 135L270 183L360 164L450 155L540 126L540 0L450 0L360 0L270 0L180 0L90 0L0 0Z" fill="#143ba2"></path><path d="M0 356L90 395L180 404L270 443L360 414L450 366L540 375L540 124L450 153L360 162L270 181L180 133L90 172L0 124Z" fill="#0f339d"></path><path d="M0 443L90 471L180 471L270 500L360 500L450 452L540 452L540 373L450 364L360 412L270 441L180 402L90 393L0 354Z" fill="#0b2b98"></path><path d="M0 529L90 567L180 567L270 567L360 587L450 519L540 548L540 450L450 450L360 498L270 498L180 469L90 469L0 441Z" fill="#082393"></path><path d="M0 654L90 654L180 692L270 663L360 673L450 654L540 635L540 546L450 517L360 585L270 565L180 565L90 565L0 527Z" fill="#061a8e"></path><path d="M0 731L90 740L180 779L270 750L360 769L450 731L540 740L540 633L450 652L360 671L270 661L180 690L90 652L0 652Z" fill="#061088"></path><path d="M0 961L90 961L180 961L270 961L360 961L450 961L540 961L540 738L450 729L360 767L270 748L180 777L90 738L0 729Z" fill="#060382"></path></svg>