<svg id="visual" viewBox="0 0 960 540" width="960" height="540" xmlns="http://www.w3.org/2000/svg" xmlns:xlink="http://www.w3.org/1999/xlink" version="1.1"><path d="M0 136L87 158L175 239L262 131L349 141L436 114L524 201L611 131L698 131L785 104L873 179L960 131L960 0L873 0L785 0L698 0L611 0L524 0L436 0L349 0L262 0L175 0L87 0L0 0Z" fill="#143ba2"></path><path d="M0 298L87 298L175 352L262 320L349 320L436 298L524 266L611 255L698 271L785 298L873 330L960 298L960 129L873 177L785 102L698 129L611 129L524 199L436 112L349 139L262 129L175 237L87 156L0 134Z" fill="#0e329c"></path><path d="M0 325L87 330L175 379L262 357L349 352L436 374L524 325L611 293L698 352L785 341L873 411L960 325L960 296L873 328L785 296L698 269L611 253L524 264L436 296L349 318L262 318L175 350L87 296L0 296Z" fill="#0a2896"></path><path d="M0 395L87 406L175 428L262 476L349 433L436 422L524 433L611 406L698 455L785 390L873 471L960 363L960 323L873 409L785 339L698 350L611 291L524 323L436 372L349 350L262 355L175 377L87 328L0 323Z" fill="#071e90"></path><path d="M0 492L87 492L175 476L262 514L349 503L436 465L524 487L611 514L698 509L785 471L873 503L960 465L960 361L873 469L785 388L698 453L611 404L524 431L436 420L349 431L262 474L175 426L87 404L0 393Z" fill="#061289"></path><path d="M0 541L87 541L175 541L262 541L349 541L436 541L524 541L611 541L698 541L785 541L873 541L960 541L960 463L873 501L785 469L698 507L611 512L524 485L436 463L349 501L262 512L175 474L87 490L0 490Z" fill="#060382"></path></svg>